<?xml version="1.0" standalone="no"?>
<!DOCTYPE svg PUBLIC "-//W3C//DTD SVG 20010904//EN"
 "http://www.w3.org/TR/2001/REC-SVG-20010904/DTD/svg10.dtd">
<svg version="1.0" xmlns="http://www.w3.org/2000/svg"
 width="336.000000pt" height="336.000000pt" viewBox="0 0 336.000000 336.000000"
 preserveAspectRatio="xMidYMid meet">

<g transform="translate(0.000000,336.000000) scale(0.100000,-0.100000)"
fill="#000000" stroke="none">
<path d="M1332 2900 c-29 -21 -42 -38 -42 -54 0 -13 -7 -29 -15 -36 -21 -17 0
-31 29 -21 12 5 68 4 126 -1 58 -4 123 -7 145 -6 22 0 63 2 90 2 34 1 49 5 48
14 -2 6 4 12 12 12 8 0 15 -7 15 -15 0 -9 7 -26 15 -39 11 -16 13 -31 7 -47
-12 -34 -9 -62 6 -67 9 -3 13 3 11 14 -4 30 13 147 20 136 3 -6 60 -10 136
-11 135 -1 212 -8 220 -20 2 -4 -35 -8 -83 -10 -47 -1 -88 -4 -90 -5 -2 -2 56
-7 127 -11 82 -5 134 -12 140 -19 7 -8 8 -39 4 -79 -5 -60 -8 -67 -27 -67 -12
0 -104 7 -206 15 -102 8 -191 15 -197 15 -14 0 -18 85 -7 128 6 20 12 22 82
22 41 0 73 2 71 5 -10 9 -151 7 -161 -3 -9 -9 -14 -149 -6 -158 6 -5 448 -37
453 -33 2 3 7 39 11 81 7 77 6 77 -20 89 -68 31 -8 36 218 17 122 -10 143 -14
158 -32 13 -17 19 -19 29 -8 17 16 74 15 88 -2 7 -8 48 -15 118 -20 65 -4 111
-12 115 -19 5 -7 7 -25 5 -41 -2 -15 0 -47 4 -70 7 -36 -5 -173 -15 -184 -2
-2 -68 0 -145 4 -112 5 -141 10 -141 21 0 24 -17 5 -23 -26 -4 -21 -13 -30
-29 -33 -18 -2 -22 -8 -20 -30 5 -46 -16 -49 -224 -32 -104 9 -191 18 -193 20
-3 2 0 9 6 15 7 7 35 8 87 2 42 -5 80 -7 84 -4 5 3 12 18 15 32 12 50 -4 55
-187 68 -157 11 -198 17 -170 28 15 5 5 52 -18 85 l-18 26 -60 -25 c-33 -15
-58 -28 -56 -30 2 -2 20 3 40 11 20 8 36 11 36 5 0 -5 -4 -9 -9 -9 -5 0 -16
-6 -23 -14 -27 -26 -76 -47 -84 -34 -4 6 2 17 12 25 18 13 17 14 -8 8 -19 -5
-29 -2 -35 10 -9 15 -13 15 -51 0 -23 -10 -42 -23 -42 -30 0 -7 -9 -15 -19
-18 -15 -3 -27 5 -45 32 -14 20 -26 43 -26 49 0 17 -60 135 -73 143 -5 4 -31
-2 -58 -13 -53 -22 -72 -56 -72 -130 0 -21 -2 -38 -6 -39 -30 -3 -59 -12 -96
-29 -24 -11 -57 -20 -74 -20 -23 0 -369 -141 -704 -287 -38 -17 -39 -16 -56 6
-17 22 -19 23 -49 7 -34 -18 -38 -26 -22 -42 15 -15 -43 -76 -97 -103 -36 -18
-44 -19 -56 -6 -8 8 -17 12 -20 9 -3 -3 -12 7 -21 24 -20 39 -43 43 -104 18
-72 -29 -102 -74 -99 -150 1 -31 6 -56 11 -56 4 0 6 -7 2 -15 -3 -8 -2 -15 3
-15 11 0 51 -92 51 -117 0 -29 28 -93 44 -99 7 -3 33 2 57 11 24 9 62 17 84
17 32 -1 35 1 15 6 -15 5 -31 21 -39 39 -16 35 -39 49 -55 33 -15 -15 -53 -12
-60 5 -3 8 -11 14 -18 13 -8 -2 -13 7 -13 22 0 14 -8 43 -19 64 -12 26 -16 45
-10 54 11 16 168 84 201 86 11 0 19 4 17 7 -5 9 67 57 98 64 32 8 53 30 43 45
-3 5 -1 10 4 10 6 0 11 -7 11 -15 0 -8 11 -17 24 -21 13 -3 26 -15 29 -26 5
-16 -3 -24 -39 -39 -42 -19 -56 -41 -34 -54 5 -3 18 -1 27 5 16 11 16 11 1 6
-34 -10 -29 15 6 29 49 21 66 18 37 -5 l-23 -20 30 6 c25 5 31 2 37 -15 3 -12
11 -21 16 -21 6 0 5 8 -1 20 -6 11 -8 25 -5 30 3 5 -3 13 -12 19 -11 6 -13 11
-5 11 7 0 22 -16 33 -35 12 -19 24 -35 28 -35 7 0 480 198 548 230 24 11 45
20 47 20 2 0 25 10 52 21 42 19 46 23 28 30 -31 11 -40 98 -13 117 14 10 16
18 9 36 -8 21 -6 23 11 19 14 -4 22 0 26 15 6 23 55 47 78 38 8 -3 56 12 106
34 49 22 96 40 103 40 8 0 21 -18 30 -40 9 -22 19 -40 24 -40 9 0 47 -68 41
-73 -2 -2 -26 -13 -54 -24 -37 -16 -53 -19 -63 -11 -10 9 -14 6 -18 -9 -3 -11
-24 -31 -47 -43 -23 -13 -82 -51 -132 -85 -77 -53 -128 -78 -254 -126 -13 -5
-22 -12 -19 -14 3 -3 32 6 66 20 34 14 65 25 69 25 5 -1 -17 -24 -47 -51 -44
-41 -50 -49 -30 -45 36 9 -72 -42 -255 -119 -88 -37 -165 -72 -172 -77 -14
-11 -2 -52 24 -81 18 -20 19 -18 -27 -39 -164 -74 -212 -82 -202 -32 4 20 0
24 -21 24 -18 0 -26 -6 -29 -25 -4 -21 -1 -25 18 -25 28 0 32 -16 7 -23 -10
-3 -2 -5 18 -6 20 0 59 9 87 20 48 20 53 20 76 5 16 -10 28 -30 32 -53 4 -21
23 -76 43 -123 29 -68 43 -88 68 -100 30 -15 31 -17 72 -215 23 -110 48 -206
55 -213 11 -11 23 -10 70 7 l56 20 15 -27 14 -27 -5 31 -6 31 107 42 c59 22
110 41 115 41 10 0 50 -97 42 -104 -9 -10 -24 -7 -17 3 9 16 -169 -59 -182
-76 -7 -9 -11 -18 -8 -21 5 -5 134 43 188 70 43 21 44 29 17 94 l-20 47 20 14
c28 20 25 49 -10 74 -22 17 -45 60 -95 178 -37 86 -75 174 -84 196 -10 22 -21
50 -25 62 -7 22 -6 22 27 8 31 -13 37 -12 105 21 48 23 70 39 65 47 -4 7 11
-4 33 -22 21 -19 38 -39 36 -44 -1 -5 2 -6 7 -3 5 3 28 -10 51 -29 23 -19 37
-35 32 -35 -6 0 -14 4 -17 10 -3 5 -16 15 -28 21 -12 6 -2 -6 22 -27 33 -29
60 -42 105 -52 32 -6 62 -14 65 -17 11 -11 3 -83 -19 -189 -22 -103 -23 -110
-6 -140 18 -35 18 -38 -52 -216 -16 -41 -41 -106 -55 -143 l-26 -68 32 -19
c18 -11 40 -20 49 -20 32 0 48 -12 49 -39 l1 -26 7 25 c8 29 2 29 142 -1 l106
-22 -9 -46 c-13 -70 -17 -80 -29 -59 -6 10 -28 21 -52 25 -23 3 -36 8 -29 11
22 7 1 22 -31 21 -27 0 -29 -2 -12 -9 14 -6 6 -8 -29 -7 -54 2 -75 -17 -29
-26 15 -3 65 -12 111 -21 45 -8 88 -13 96 -10 7 3 17 31 22 62 8 53 11 57 39
62 34 6 42 26 26 71 -8 23 -4 69 19 207 17 97 35 201 41 230 l11 52 26 -28
c29 -31 37 -32 293 -48 136 -8 139 -6 163 132 23 128 21 123 59 167 l32 37
110 -20 c61 -11 122 -22 137 -24 19 -4 33 1 46 14 16 17 21 18 44 6 15 -8 45
-17 67 -21 33 -5 41 -4 41 9 0 24 11 25 90 10 101 -19 109 -18 115 11 3 14 7
36 10 50 7 31 -9 38 -112 55 -61 10 -73 15 -73 31 0 12 -9 21 -27 25 -16 3
-35 8 -45 10 -9 3 -19 1 -22 -5 -11 -17 -44 0 -49 25 -2 13 2 61 9 107 23 141
25 138 -58 151 -33 6 -42 3 -78 -30 -22 -20 -40 -45 -40 -55 0 -14 -7 -19 -30
-19 -16 0 -30 4 -30 9 0 4 -26 14 -58 20 -32 6 -67 18 -78 26 -12 8 -90 26
-175 40 -85 14 -176 30 -204 35 l-50 10 3 53 c1 28 5 63 8 75 l5 24 24 -26
c23 -24 29 -26 112 -25 48 1 135 4 191 8 134 8 137 10 146 158 7 97 11 113 38
156 28 44 34 48 62 43 17 -3 81 -8 142 -12 105 -6 113 -5 122 13 11 19 36 24
57 11 6 -3 27 -9 48 -13 34 -7 39 -5 44 14 6 22 8 22 104 15 l97 -6 7 46 c5
31 3 51 -5 61 -16 19 -40 20 -40 1 0 -8 -17 -16 -46 -20 -89 -12 -91 -11 -99
40 l-7 46 -68 -5 -69 -5 -6 38 c-4 21 -3 80 0 131 8 105 6 109 -66 109 -42 0
-50 -4 -83 -40 -20 -22 -36 -50 -36 -61 0 -19 -4 -20 -32 -15 -18 4 -55 11
-83 15 -27 5 -63 14 -80 21 -16 6 -199 23 -405 36 -206 14 -381 27 -387 29 -7
3 -13 16 -13 30 0 23 -4 25 -40 25 -34 0 -39 -3 -37 -21 1 -16 -7 -23 -38 -34
-22 -7 -60 -15 -84 -18 -37 -5 -47 -2 -67 20 -15 17 -24 38 -24 59 0 42 -21
54 -93 54 -44 0 -62 -5 -95 -30z m68 -75 c10 -13 9 -15 -11 -15 -37 0 -69 11
-63 21 9 15 61 10 74 -6z m88 3 c19 -19 14 -25 -18 -20 -25 3 -28 7 -19 18 14
17 22 17 37 2z m1552 -319 c0 -12 -7 -19 -20 -19 -14 0 -20 7 -20 24 0 19 4
23 20 19 11 -3 20 -14 20 -24z m-10 -65 c0 -21 -27 -47 -35 -34 -10 16 5 50
21 50 8 0 14 -7 14 -16z m-1105 -30 c-57 -26 -65 -28 -65 -14 0 15 46 35 82
36 32 1 31 0 -17 -22z m1301 17 c5 -5 20 -11 34 -14 14 -2 -8 -5 -47 -6 -67
-1 -84 5 -66 22 10 10 68 8 79 -2z m-1516 -27 c0 -8 -4 -12 -10 -9 -5 3 -10
13 -10 21 0 8 5 12 10 9 6 -3 10 -13 10 -21z m-530 -14 c-13 -8 -13 -10 1 -10
9 0 22 -6 28 -14 9 -11 -10 -22 -101 -61 -115 -49 -157 -73 -105 -61 23 6 27
3 27 -16 0 -13 3 -40 6 -60 6 -33 4 -38 -13 -38 -13 0 -27 18 -48 63 -25 51
-35 63 -58 65 -42 5 -17 22 108 76 61 26 119 51 130 56 27 12 44 12 25 0z
m981 3 c28 -7 20 -9 -46 -13 -53 -4 -90 -1 -110 7 -28 11 -24 12 46 13 42 0
92 -3 110 -7z m209 -38 c0 -24 -2 -25 -72 -24 -77 0 -126 12 -98 22 40 15 89
25 128 26 38 1 42 -1 42 -24z m-630 -17 c-1 -28 -2 -30 -11 -15 -6 10 -8 25
-5 33 9 24 16 16 16 -18z m-32 -25 c12 -37 3 -48 -29 -38 -18 6 -19 4 -11 -12
9 -17 4 -22 -51 -43 -34 -13 -83 -34 -109 -47 -44 -21 -48 -22 -58 -5 -8 13
-9 8 -5 -25 l6 -41 -43 10 c-42 9 -63 8 -103 -7 -32 -11 17 27 133 106 84 56
109 68 130 62 20 -5 24 -3 19 10 -4 11 7 21 44 36 27 12 49 27 49 33 0 19 16
-4 28 -39z m-483 -20 c3 -21 8 -46 10 -56 4 -23 -55 -53 -67 -34 -5 8 -8 6 -8
-5 0 -35 -29 -19 -35 20 -4 20 -9 44 -11 53 -5 19 22 34 30 16 2 -7 5 -4 5 7
1 13 6 17 20 13 12 -3 22 1 25 9 10 26 25 14 31 -23z m909 28 c14 -5 16 -10 8
-15 -16 -10 -191 4 -198 15 -6 11 163 11 190 0z m-289 -51 c17 27 23 -9 10
-60 -8 -35 -14 -45 -14 -28 -1 15 -6 30 -12 33 -16 11 -19 1 -10 -32 7 -22 5
-37 -5 -51 -7 -11 -11 -22 -7 -25 8 -9 -17 -67 -29 -67 -6 0 -6 -5 1 -14 8
-10 8 -20 1 -37 l-11 -24 5 24 c3 17 0 25 -15 28 -19 5 -19 11 -13 92 7 90 17
131 33 131 5 0 12 12 15 26 7 25 8 25 25 9 14 -12 21 -13 26 -5z m-739 -17 c3
-16 9 -40 14 -55 8 -24 5 -28 -28 -41 -35 -14 -37 -14 -44 7 -12 42 -9 96 7
96 10 0 15 -11 16 -32 0 -18 4 -42 9 -53 11 -26 12 -3 1 52 -5 23 -6 45 -3 48
12 12 22 3 28 -22z m644 -12 c-4 -9 -11 -62 -15 -119 -7 -90 -10 -102 -26
-102 -12 0 -19 -7 -19 -20 0 -15 -7 -20 -24 -20 -14 0 -28 -4 -31 -10 -8 -13
-101 -13 -125 0 -11 6 -17 17 -14 25 4 8 1 15 -5 15 -7 0 -9 10 -5 26 4 14 1
36 -6 49 -7 13 -10 30 -7 37 2 7 60 36 127 63 89 36 125 56 133 73 7 16 13 19
18 10 4 -6 4 -19 -1 -27z m595 25 c61 -4 141 -9 179 -13 l68 -6 -4 -95 c-3
-74 -8 -97 -21 -107 -11 -8 -76 -14 -184 -18 -179 -6 -213 1 -213 42 0 10 -7
21 -15 25 -20 7 -19 26 3 42 25 20 121 18 129 -2 9 -25 23 4 23 51 -1 32 -3
36 -11 23 -8 -14 -19 -16 -57 -12 -88 12 -125 86 -39 79 18 -1 82 -6 142 -9z
m-280 -6 c-3 -5 -10 -10 -16 -10 -5 0 -9 5 -9 10 0 6 7 10 16 10 8 0 12 -4 9
-10z m60 -71 c-2 -39 -8 -76 -13 -81 -18 -18 -25 16 -14 67 5 25 8 55 5 66 -4
12 0 19 9 19 12 0 14 -14 13 -71z m-1190 51 c4 -6 3 -10 -2 -9 -22 4 -33 -3
-33 -21 0 -11 5 -20 10 -20 6 0 10 5 10 11 0 8 5 7 15 -1 13 -11 15 -10 10 6
-3 10 0 8 6 -6 6 -14 18 -38 26 -53 8 -16 13 -30 11 -32 -6 -6 -387 -165 -395
-165 -5 0 -19 27 -32 60 -21 53 -22 63 -10 75 19 18 227 107 259 110 63 6 65
7 51 12 -10 4 -3 12 20 24 40 21 46 22 54 9z m-146 -19 c-25 -19 -202 -101
-219 -101 -6 0 -10 5 -10 10 0 6 8 10 19 10 10 0 39 11 65 25 26 14 54 25 62
25 7 0 14 4 14 8 0 4 10 8 22 9 12 1 28 9 37 18 8 8 19 15 24 15 6 0 -1 -8
-14 -19z m1273 -100 c4 0 5 -8 2 -16 -5 -11 1 -15 25 -15 30 0 31 -2 31 -42 0
-25 -7 -49 -17 -60 -13 -14 -14 -21 -5 -30 7 -7 12 -23 12 -36 0 -18 -4 -22
-17 -18 -16 4 -132 26 -140 26 -2 0 -2 4 1 8 2 4 -11 6 -30 4 -26 -3 -33 -1
-29 9 2 8 6 30 8 49 6 50 24 90 41 90 26 0 28 20 4 29 -16 7 -4 8 42 6 36 -1
68 -3 72 -4z m-1527 -21 c-3 -5 -11 -10 -16 -10 -6 0 -7 5 -4 10 3 6 11 10 16
10 6 0 7 -4 4 -10z m1310 -44 c9 -60 -2 -108 -23 -104 -11 2 -16 11 -14 23 2
11 5 40 6 65 4 59 4 60 15 60 6 0 13 -20 16 -44z m-1321 -12 c9 -24 7 -28 -9
-14 -17 14 -20 30 -6 30 5 0 12 -7 15 -16z m719 -1 c-8 -25 -32 -43 -48 -36
-10 3 -7 11 13 29 32 28 44 30 35 7z m-1033 -61 c-8 -3 -22 -9 -32 -13 -12 -7
-15 -5 -11 10 3 13 11 17 31 13 17 -3 21 -7 12 -10z m995 -22 c-7 -11 -96 -53
-135 -64 -22 -6 -20 -2 15 30 22 20 53 45 69 55 25 15 31 16 43 3 8 -7 11 -18
8 -24z m-1110 -19 c-3 -6 -14 -11 -23 -11 -13 0 -13 2 4 14 21 15 30 14 19 -3z
m1431 -10 c-3 -5 19 -12 50 -16 31 -4 72 -13 92 -21 l37 -14 -40 4 c-61 6
-155 28 -155 36 0 7 11 20 17 20 2 0 2 -4 -1 -9z m-332 -25 c-6 -16 -112 -62
-121 -52 -9 9 -4 12 58 40 64 29 70 30 63 12z m-204 0 c0 -17 -217 -113 -228
-101 -9 8 2 14 109 60 102 43 119 49 119 41z m894 -36 c14 -5 26 -16 26 -24 0
-13 5 -12 31 2 29 17 30 17 53 -9 18 -21 24 -23 34 -12 20 21 50 15 68 -12 31
-48 -7 -104 -62 -91 -13 4 -24 13 -24 21 0 12 -4 12 -26 0 -20 -10 -32 -11
-50 -3 -13 6 -24 15 -24 20 0 4 -9 3 -20 -4 -27 -17 -74 0 -78 30 -3 17 2 22
17 22 12 0 21 5 21 10 0 6 -7 10 -15 10 -21 0 -19 27 3 39 21 13 16 13 46 1z
m-698 -16 c-3 -9 -6 -26 -6 -40 0 -37 -50 -59 -96 -42 -48 17 -40 37 26 70 64
31 85 35 76 12z m294 -33 c21 -8 22 -10 5 -10 -11 0 -37 3 -57 8 -23 6 -40 5
-47 -2 -7 -7 -29 -7 -72 1 -69 13 -74 15 -66 35 4 12 22 11 109 -5 56 -10 114
-22 128 -27z m194 10 c3 -4 -11 -5 -30 -3 -19 2 -34 7 -34 11 0 9 59 1 64 -8z
m-654 1 c0 -5 -40 -25 -90 -44 -49 -20 -90 -33 -90 -29 0 8 147 79 168 80 6 1
12 -3 12 -7z m-270 -32 c0 -5 -4 -10 -10 -10 -5 0 -10 5 -10 10 0 6 5 10 10
10 6 0 10 -4 10 -10z m890 -20 c0 -10 -38 -1 -45 10 -2 4 7 5 20 2 14 -2 25
-8 25 -12z m81 -16 c-5 -16 -10 -21 -10 -12 -1 18 10 51 15 45 2 -1 -1 -16 -5
-33z m-681 1 c0 -8 -4 -15 -10 -15 -5 0 -10 7 -10 15 0 8 5 15 10 15 6 0 10
-7 10 -15z m-70 -9 c0 -3 -4 -8 -10 -11 -5 -3 -10 -1 -10 4 0 6 5 11 10 11 6
0 10 -2 10 -4z m854 -42 c60 -10 105 -19 99 -21 -6 -2 -66 6 -134 17 -68 12
-141 24 -161 27 -21 3 -38 9 -38 13 0 4 28 2 63 -5 34 -7 111 -21 171 -31z
m-652 5 c2 -6 30 -16 62 -22 33 -7 61 -17 63 -22 4 -14 -76 -65 -103 -65 -12
0 -28 7 -35 16 -7 9 -24 20 -36 25 -23 8 -23 10 -9 38 19 36 50 53 58 30z
m-112 -24 c0 -7 7 -15 15 -19 18 -7 20 -36 2 -36 -7 0 -18 15 -25 33 -15 41
-15 50 -2 42 6 -3 10 -12 10 -20z m651 7 c-13 -2 -27 0 -32 5 -6 6 3 7 23 4
28 -4 29 -6 9 -9z m66 -8 c-3 -3 -12 -4 -19 -1 -8 3 -5 6 6 6 11 1 17 -2 13
-5z m60 -10 c-3 -3 -12 -4 -19 -1 -8 3 -5 6 6 6 11 1 17 -2 13 -5z m136 -1
c-7 -2 -19 -2 -25 0 -7 3 -2 5 12 5 14 0 19 -2 13 -5z m-1743 -12 c8 -2 -22
-18 -48 -26 -21 -6 -22 -5 -11 12 10 16 28 21 59 14z m530 -1 c25 14 36 7 42
-25 9 -46 -69 -47 -90 -1 -12 27 -5 41 14 25 9 -7 19 -7 34 1z m1133 3 c-7 -2
-19 -2 -25 0 -7 3 -2 5 12 5 14 0 19 -2 13 -5z m140 0 c-7 -2 -19 -2 -25 0 -7
3 -2 5 12 5 14 0 19 -2 13 -5z m864 -15 c-3 -8 -6 -5 -6 6 -1 11 2 17 5 13 3
-3 4 -12 1 -19z m-2387 2 c0 -5 -4 -10 -10 -10 -5 0 -10 5 -10 10 0 6 5 10 10
10 6 0 10 -4 10 -10z m1114 -11 c-3 -5 2 -9 10 -9 17 0 22 -25 7 -34 -6 -4
-62 32 -88 58 -1 1 16 0 38 -2 21 -2 36 -8 33 -13z m323 15 c-3 -3 -12 -4 -19
-1 -8 3 -5 6 6 6 11 1 17 -2 13 -5z m150 0 c-3 -3 -12 -4 -19 -1 -8 3 -5 6 6
6 11 1 17 -2 13 -5z m56 -11 c-7 -2 -19 -2 -25 0 -7 3 -2 5 12 5 14 0 19 -2
13 -5z m-1113 -38 c0 -8 4 -15 9 -15 5 0 14 7 21 15 20 24 29 18 49 -27 13
-30 16 -48 9 -61 -7 -15 -5 -20 10 -24 14 -3 36 -46 82 -161 35 -87 72 -167
83 -179 29 -32 31 -75 6 -92 -12 -7 -18 -8 -14 -2 10 17 -1 14 -83 -25 -42
-20 -105 -49 -139 -65 -34 -16 -66 -29 -71 -29 -12 0 -29 55 -55 183 -13 59
-26 104 -31 100 -5 -4 -5 2 -2 15 5 14 3 22 -4 22 -8 0 -10 10 -8 25 3 13 2
22 -2 20 -4 -3 -10 4 -13 15 -3 10 0 22 7 25 8 3 8 7 -2 11 -12 6 -7 24 7 24
5 0 19 -27 31 -60 12 -33 27 -63 33 -67 6 -3 7 -1 3 5 -4 7 -3 12 3 12 5 0 11
-5 13 -10 2 -6 36 3 81 21 43 17 76 34 73 36 -2 2 -32 -7 -67 -21 -74 -31 -78
-31 -75 -8 2 12 12 17 37 17 19 0 43 6 54 13 18 11 17 12 -10 7 l-30 -6 25 15
c29 17 54 21 45 6 -3 -5 -1 -10 5 -10 7 0 10 7 6 15 -3 9 0 15 9 15 12 0 12 6
-1 43 -8 23 -24 62 -35 87 -12 24 -25 55 -30 68 -6 16 -14 22 -25 18 -9 -3
-19 -6 -24 -6 -4 0 -7 -35 -7 -78 0 -85 -5 -102 -32 -102 -31 0 -60 130 -33
152 19 16 14 31 -8 25 -11 -3 -20 -1 -20 4 0 5 7 9 15 9 8 0 32 9 52 20 45 24
53 25 53 5z m-262 -38 c11 -12 22 -35 24 -52 3 -16 9 -38 13 -47 5 -13 3 -18
-8 -18 -24 0 -32 -22 -13 -36 10 -7 16 -21 14 -31 -5 -19 -4 -20 -62 110 -32
71 -34 107 -7 100 11 -3 28 -15 39 -26z m2113 -4 c-8 -15 -10 -15 -11 -2 0 17
10 32 18 25 2 -3 -1 -13 -7 -23z m-1214 11 c-3 -3 -12 -4 -19 -1 -8 3 -5 6 6
6 11 1 17 -2 13 -5z m218 -10 c17 -1 37 -4 45 -7 8 -3 68 -15 132 -28 65 -12
116 -25 114 -27 -8 -7 -406 63 -406 72 0 5 19 5 43 1 23 -5 56 -9 72 -11z
m-270 -36 c22 -6 54 -11 70 -12 19 -1 30 -6 30 -16 0 -8 4 -21 8 -27 10 -15
14 -15 -59 -3 -32 6 -74 13 -93 16 -23 4 -30 8 -22 13 9 6 5 10 -13 15 -15 4
-24 11 -21 16 8 13 51 12 100 -2z m132 -10 c-3 -8 -6 -5 -6 6 -1 11 2 17 5 13
3 -3 4 -12 1 -19z m123 2 c0 -5 -2 -10 -4 -10 -3 0 -8 5 -11 10 -3 6 -1 10 4
10 6 0 11 -4 11 -10z m43 -7 c-7 -2 -19 -2 -25 0 -7 3 -2 5 12 5 14 0 19 -2
13 -5z m1167 -26 c11 -5 9 -6 -4 -4 -11 1 -21 9 -23 17 -3 10 -2 11 4 4 4 -6
15 -14 23 -17z m-523 -29 c-3 -8 -6 -5 -6 6 -1 11 2 17 5 13 3 -3 4 -12 1 -19z
m-1690 -4 c-3 -4 0 -16 8 -28 8 -11 15 -25 15 -31 0 -5 -8 4 -19 20 -17 28
-18 45 -4 45 4 0 3 -3 0 -6z m863 -44 c18 11 31 3 24 -15 -4 -8 -10 -13 -14
-10 -5 3 -6 -4 -3 -14 4 -16 1 -19 -15 -14 -33 8 -51 35 -45 66 l6 28 16 -25
c12 -18 21 -22 31 -16z m137 34 c-3 -3 -12 -4 -19 -1 -8 3 -5 6 6 6 11 1 17
-2 13 -5z m674 -31 c-12 -20 -14 -14 -5 12 4 9 9 14 11 11 3 -2 0 -13 -6 -23z
m-574 11 c-3 -3 -12 -4 -19 -1 -8 3 -5 6 6 6 11 1 17 -2 13 -5z m138 -24 c3
-5 1 -10 -4 -10 -6 0 -11 5 -11 10 0 6 2 10 4 10 3 0 8 -4 11 -10z m-155 -20
c0 -5 -4 -10 -10 -10 -5 0 -10 5 -10 10 0 6 5 10 10 10 6 0 10 -4 10 -10z
m315 -34 c194 -33 215 -37 211 -45 -4 -6 -7 -25 -21 -123 -12 -80 -17 -82
-212 -68 -92 7 -176 17 -185 21 -9 5 -19 22 -23 39 -4 16 -11 30 -16 30 -19 0
-8 26 17 41 33 20 124 6 124 -20 1 -28 17 9 23 54 5 34 4 37 -6 23 -11 -14
-20 -15 -60 -6 -51 10 -69 31 -60 67 4 18 11 21 32 17 14 -3 94 -17 176 -30z
m-1175 15 c-8 -5 -26 -12 -40 -15 l-25 -7 25 15 c14 9 32 15 40 15 13 0 13 -1
0 -8z m755 -115 c18 -13 18 -14 -8 -9 -15 3 -27 9 -27 14 0 13 13 11 35 -5z
m155 -5 c0 -6 -4 -13 -10 -16 -5 -3 -10 1 -10 9 0 9 5 16 10 16 6 0 10 -4 10
-9z m-13 -58 c-3 -10 -8 -31 -12 -47 -3 -17 -13 -35 -22 -41 -13 -10 -13 -15
-3 -32 11 -17 7 -47 -20 -183 -18 -90 -30 -175 -26 -191 3 -16 1 -29 -4 -29
-6 0 -10 -7 -10 -15 0 -13 -4 -14 -20 -5 -13 7 -20 22 -21 43 l-1 32 -10 -35
c-5 -19 -11 -36 -11 -36 -1 -1 -24 2 -52 7 -27 4 -81 11 -120 14 -102 9 -115
13 -115 35 0 23 59 176 102 264 19 40 28 50 24 31 -25 -128 -28 -149 -19 -152
5 -2 7 -19 5 -38 -3 -21 0 -35 7 -35 6 0 11 5 11 10 0 6 8 10 18 10 14 0 15 2
2 10 -13 8 -13 10 1 10 19 0 32 -37 15 -43 -12 -5 59 -27 87 -27 12 0 17 -6
15 -17 -3 -14 -12 -17 -38 -15 -19 1 -38 8 -42 15 -5 8 -8 6 -8 -6 0 -18 36
-37 70 -37 17 0 26 15 51 85 6 17 7 15 9 -10 l2 -30 8 30 c4 17 25 123 46 238
37 199 39 207 62 207 17 0 22 -4 19 -17z m-253 -292 c4 -5 -3 -7 -14 -4 -23 6
-26 13 -6 13 8 0 17 -4 20 -9z m136 -22 c0 -11 -4 -18 -10 -14 -5 3 -7 12 -3
20 7 21 13 19 13 -6z m-57 4 c-7 -2 -21 -2 -30 0 -10 3 -4 5 12 5 17 0 24 -2
18 -5z m-26 -39 c-3 -3 -12 -4 -19 -1 -8 3 -5 6 6 6 11 1 17 -2 13 -5z m-74
-11 c-7 -2 -19 -2 -25 0 -7 3 -2 5 12 5 14 0 19 -2 13 -5z m64 -9 c-3 -3 -12
-4 -19 -1 -8 3 -5 6 6 6 11 1 17 -2 13 -5z m40 -10 c-3 -3 -12 -4 -19 -1 -8 3
-5 6 6 6 11 1 17 -2 13 -5z m2 -20 c2 -2 -11 -5 -30 -5 l-34 -1 30 -8 c28 -7
28 -8 5 -9 -14 0 -32 4 -40 9 -11 7 -11 10 -2 10 7 0 10 4 7 10 -5 9 53 3 64
-6z"/>
<path d="M1152 2245 c0 -16 2 -22 5 -12 2 9 2 23 0 30 -3 6 -5 -1 -5 -18z"/>
<path d="M1954 1809 c-3 -6 -1 -16 5 -22 8 -8 11 -5 11 11 0 24 -5 28 -16 11z"/>
<path d="M2050 1786 c0 -8 5 -18 10 -21 6 -3 10 3 10 14 0 12 -4 21 -10 21 -5
0 -10 -6 -10 -14z"/>
<path d="M1008 1303 c7 -3 16 -2 19 1 4 3 -2 6 -13 5 -11 0 -14 -3 -6 -6z"/>
<path d="M1095 1290 c-37 -18 -37 -19 -10 -15 l30 5 -27 -11 c-24 -9 -27 -15
-22 -37 10 -46 13 -52 26 -52 8 0 9 3 3 8 -6 4 -11 19 -13 34 -3 27 19 48 51
48 13 0 64 -96 60 -112 -2 -4 2 -8 7 -8 16 0 12 18 -17 82 -22 50 -30 59 -47
54 -21 -5 -21 -5 -2 9 27 21 9 18 -39 -5z"/>
<path d="M995 1250 c-3 -5 -1 -10 4 -10 6 0 11 5 11 10 0 6 -2 10 -4 10 -3 0
-8 -4 -11 -10z"/>
<path d="M1705 1400 c10 -11 20 -20 23 -20 3 0 -3 9 -13 20 -10 11 -20 20 -23
20 -3 0 3 -9 13 -20z"/>
<path d="M2217 2697 c-3 -8 1 -14 9 -14 8 0 14 6 14 14 0 7 -4 13 -9 13 -5 0
-11 -6 -14 -13z"/>
<path d="M1655 2691 c-3 -5 -2 -12 3 -15 5 -3 9 1 9 9 0 17 -3 19 -12 6z"/>
<path d="M2300 2687 c3 -3 52 -8 110 -11 58 -4 121 -9 141 -12 21 -3 40 -1 44
5 4 7 -9 11 -38 11 -24 0 -93 3 -153 6 -60 4 -107 4 -104 1z"/>
<path d="M1252 2598 c-15 -15 -16 -74 -1 -84 6 -3 38 -10 70 -13 48 -6 59 -5
59 7 0 9 -6 12 -16 8 -9 -3 -34 -1 -57 5 -30 8 -37 13 -26 20 9 6 10 9 2 9 -7
0 -10 6 -7 14 3 8 2 22 -3 30 -7 13 -12 13 -21 4z"/>
<path d="M2275 2560 c3 -5 11 -10 16 -10 6 0 7 5 4 10 -3 6 -11 10 -16 10 -6
0 -7 -4 -4 -10z"/>
<path d="M2338 2553 c18 -2 45 -2 60 0 15 2 0 4 -33 4 -33 0 -45 -2 -27 -4z"/>
<path d="M2430 2549 c0 -5 26 -9 58 -8 64 1 60 5 -10 12 -27 2 -48 1 -48 -4z"/>
<path d="M2830 2507 c0 -10 -16 -14 -52 -15 -83 -3 -235 -22 -291 -38 -29 -7
-74 -19 -102 -26 l-50 -11 33 -9 c23 -6 49 -4 85 6 76 22 200 43 295 51 72 7
82 6 82 -9 0 -9 5 -16 10 -16 6 0 10 7 10 16 0 15 8 16 60 11 49 -6 60 -4 60
8 0 11 -13 15 -55 15 -42 0 -55 3 -55 15 0 8 -7 15 -15 15 -8 0 -15 -6 -15
-13z"/>
<path d="M1551 2496 c-13 -16 -4 -46 14 -46 19 0 38 28 31 45 -7 19 -30 19
-45 1z"/>
<path d="M3238 2503 c7 -3 16 -2 19 1 4 3 -2 6 -13 5 -11 0 -14 -3 -6 -6z"/>
<path d="M1205 2166 c-27 -14 -47 -25 -43 -25 10 -1 98 38 98 44 0 7 0 7 -55
-19z"/>
<path d="M1062 2108 c-40 -17 -71 -32 -69 -34 4 -4 147 52 156 61 10 11 -17 2
-87 -27z"/>
<path d="M1025 2040 c-13 -6 -15 -9 -5 -9 8 0 22 4 30 9 18 12 2 12 -25 0z"/>
<path d="M445 1871 c-3 -5 -1 -12 5 -16 5 -3 10 1 10 9 0 18 -6 21 -15 7z"/>
<path d="M600 1860 c-8 -5 -10 -10 -5 -10 6 0 17 5 25 10 8 5 11 10 5 10 -5 0
-17 -5 -25 -10z"/>
<path d="M602 1787 c-8 -10 -5 -13 15 -12 20 0 28 -6 34 -25 6 -23 7 -23 14
-6 6 14 2 24 -14 38 -27 21 -35 22 -49 5z"/>
<path d="M385 1770 c-16 -7 -17 -9 -3 -9 9 -1 20 4 23 9 7 11 7 11 -20 0z"/>
<path d="M580 1748 c0 -17 27 -44 36 -35 3 3 -3 16 -15 28 -16 18 -21 19 -21
7z"/>
<path d="M540 1711 c0 -5 5 -13 10 -16 6 -3 10 -2 10 4 0 5 -4 13 -10 16 -5 3
-10 2 -10 -4z"/>
<path d="M265 1672 c6 -5 42 -12 80 -15 50 -4 60 -4 35 3 -64 16 -126 22 -115
12z"/>
<path d="M1342 1638 c2 -6 15 -18 29 -27 l24 -15 -24 27 c-26 29 -35 34 -29
15z"/>
<path d="M328 1633 c6 -2 18 -2 25 0 6 3 1 5 -13 5 -14 0 -19 -2 -12 -5z"/>
<path d="M428 1623 c7 -3 16 -2 19 1 4 3 -2 6 -13 5 -11 0 -14 -3 -6 -6z"/>
<path d="M1106 887 c3 -10 9 -15 12 -12 3 3 0 11 -7 18 -10 9 -11 8 -5 -6z"/>
<path d="M1602 570 c0 -14 2 -19 5 -12 2 6 2 18 0 25 -3 6 -5 1 -5 -13z"/>
</g>
</svg>
